<?xml version="1.0" standalone="no"?>
<!DOCTYPE svg PUBLIC "-//W3C//DTD SVG 20010904//EN"
 "http://www.w3.org/TR/2001/REC-SVG-20010904/DTD/svg10.dtd">
<svg version="1.0" xmlns="http://www.w3.org/2000/svg"
 width="[100%]" height="[100%]" viewBox="0 0 163.000000 183.000000"
 preserveAspectRatio="xMidYMid meet">

<g transform="translate(0.000000,183.000000) scale(0.100000,-0.100000)"
fill="#000000" stroke="none">
<path d="M753 1750 c-110 -67 -100 -224 17 -276 l40 -18 0 -80 0 -79 -24 23
c-16 14 -31 20 -42 16 -15 -6 -10 -15 34 -59 l52 -52 52 52 c44 44 49 53 34
59 -11 4 -26 -2 -42 -16 l-24 -23 0 80 0 81 34 12 c96 31 134 163 69 241 -51
61 -137 78 -200 39z m134 -30 c50 -30 66 -63 60 -117 -7 -66 -48 -103 -115
-103 -55 0 -85 18 -108 62 -32 61 -4 135 61 164 42 18 65 17 102 -6z"/>
<path d="M803 1683 c-13 -14 -23 -32 -23 -39 0 -17 28 -44 46 -44 25 0 15 -19
-13 -22 -29 -3 -45 -28 -19 -28 9 0 19 -7 22 -15 7 -17 34 -21 34 -4 0 6 7 17
16 26 22 22 13 56 -18 71 -35 16 -37 36 -4 28 31 -8 41 16 15 38 -25 21 -30
20 -56 -11z"/>
<path d="M126 1388 c-51 -30 -78 -75 -78 -133 0 -137 156 -206 258 -114 20 19
22 19 93 -22 70 -41 78 -58 28 -59 -17 0 -35 -26 -24 -36 4 -5 125 24 136 32
2 2 -5 33 -14 69 -14 50 -22 65 -34 62 -17 -3 -17 -5 -5 -51 l7 -29 -72 39
-72 39 6 42 c18 128 -120 225 -229 161z m155 -46 c25 -23 33 -38 36 -78 5 -46
2 -54 -27 -87 -50 -57 -110 -61 -170 -11 -53 45 -52 125 2 176 43 40 114 40
159 0z"/>
<path d="M172 1317 c-30 -32 -28 -55 8 -75 36 -20 39 -37 6 -28 -17 4 -26 1
-30 -10 -4 -11 1 -18 14 -21 11 -3 20 -9 20 -14 0 -16 22 -9 41 14 27 32 23
55 -11 75 -36 21 -38 32 -6 32 33 0 43 18 20 35 -26 20 -37 18 -62 -8z"/>
<path d="M1392 1393 c-61 -30 -97 -102 -86 -173 5 -34 4 -36 -62 -73 -37 -20
-68 -36 -70 -34 -2 2 0 17 5 34 10 33 6 43 -14 43 -11 0 -51 -128 -43 -135 5
-3 124 -35 132 -35 4 0 6 7 4 17 -2 9 -18 21 -37 28 l-35 11 75 42 c72 40 74
40 94 23 33 -30 61 -41 105 -41 72 0 130 44 149 115 34 127 -99 236 -217 178z
m136 -39 c30 -21 52 -66 52 -109 0 -26 -9 -45 -34 -73 -31 -34 -39 -37 -86
-37 -47 0 -55 3 -86 37 -38 42 -45 88 -19 138 22 42 53 60 105 60 25 0 56 -7
68 -16z"/>
<path d="M1432 1317 c-30 -32 -28 -55 8 -75 37 -21 38 -34 3 -30 -36 4 -37
-18 -1 -40 26 -15 28 -15 47 9 29 34 26 57 -9 77 -36 21 -38 32 -6 32 33 0 43
18 20 35 -26 20 -37 18 -62 -8z"/>
<path d="M705 1166 c-64 -30 -121 -87 -151 -151 -33 -70 -33 -180 0 -251 86
-185 324 -234 483 -100 18 15 47 56 64 92 26 53 32 76 32 133 0 120 -68 226
-177 277 -71 33 -181 33 -251 0z m257 -43 c188 -105 181 -375 -13 -472 -130
-65 -282 -19 -351 106 -133 238 127 498 364 366z"/>
<path d="M785 1088 c-93 -21 -148 -87 -153 -187 -3 -55 1 -74 21 -111 73 -137
274 -139 353 -4 90 154 -47 341 -221 302z m122 -49 c119 -57 123 -231 8 -296
-82 -46 -188 -16 -232 67 -37 69 -28 137 25 194 55 58 126 71 199 35z"/>
<path d="M783 984 c-18 -9 -39 -31 -48 -51 -45 -95 63 -190 152 -134 70 44 63
155 -11 186 -44 19 -53 18 -93 -1z m97 -44 c11 -11 20 -33 20 -50 0 -17 -9
-39 -20 -50 -11 -11 -33 -20 -50 -20 -17 0 -39 9 -50 20 -11 11 -20 33 -20 50
0 17 9 39 20 50 11 11 33 20 50 20 17 0 39 -9 50 -20z"/>
<path d="M400 742 c0 -13 11 -21 38 -28 l37 -9 -74 -43 c-73 -42 -74 -43 -95
-24 -34 31 -62 42 -108 42 -156 0 -207 -216 -68 -292 43 -24 119 -20 158 9 43
31 74 100 67 150 -6 40 -5 43 32 66 21 13 53 32 71 41 l32 17 -6 -41 c-5 -32
-3 -40 8 -40 10 0 21 22 33 65 9 36 16 67 14 69 -5 3 -126 36 -134 36 -3 0 -5
-8 -5 -18z m-150 -107 c72 -37 94 -125 44 -184 -77 -91 -224 -31 -211 87 5 48
28 78 72 98 39 17 60 17 95 -1z"/>
<path d="M173 593 c-35 -40 -28 -63 22 -84 l30 -12 -34 -6 c-35 -6 -56 -31
-27 -31 9 0 19 -7 22 -15 8 -19 34 -20 34 -1 0 8 7 17 16 20 26 10 14 59 -18
74 -35 16 -37 36 -4 28 31 -8 41 16 15 38 -25 21 -30 20 -56 -11z"/>
<path d="M1185 743 c-33 -9 -61 -17 -63 -18 -2 -1 5 -33 14 -69 13 -52 20 -66
33 -63 17 3 17 5 5 51 l-7 29 72 -39 72 -39 -4 -38 c-20 -152 154 -248 259
-143 100 100 34 266 -106 266 -44 0 -72 -11 -106 -42 -21 -19 -22 -18 -95 24
l-74 43 38 9 c26 7 37 15 37 28 0 21 3 21 -75 1z m325 -108 c70 -36 90 -112
47 -176 -65 -97 -217 -48 -217 70 0 43 20 75 64 102 37 23 67 24 106 4z"/>
<path d="M1433 593 c-13 -14 -23 -32 -23 -39 0 -17 28 -44 46 -44 25 0 15 -19
-13 -22 -29 -3 -45 -28 -19 -28 9 0 19 -7 22 -15 7 -17 34 -21 34 -4 0 6 7 17
16 26 22 22 13 56 -18 71 -35 16 -37 36 -4 28 31 -8 41 16 15 38 -25 21 -30
20 -56 -11z"/>
<path d="M777 502 c-37 -37 -45 -50 -35 -60 9 -9 18 -6 40 15 l28 27 0 -82 0
-81 -44 -20 c-119 -52 -121 -216 -4 -277 96 -50 222 26 222 134 0 66 -28 111
-87 141 l-47 23 0 81 0 81 28 -27 c22 -21 31 -24 40 -15 10 10 2 23 -35 60
-26 26 -50 48 -53 48 -3 0 -27 -22 -53 -48z m121 -238 c30 -21 52 -66 52 -109
0 -26 -9 -45 -34 -73 -31 -34 -39 -37 -86 -37 -47 0 -55 3 -86 37 -52 57 -46
124 14 175 32 28 106 31 140 7z"/>
<path d="M802 229 c-29 -36 -25 -60 11 -77 33 -16 36 -35 3 -26 -25 6 -50 -16
-28 -24 7 -2 19 -10 26 -18 19 -19 25 -18 47 9 29 34 24 67 -11 80 -36 14 -39
27 -6 27 34 0 40 16 16 40 -26 26 -30 25 -58 -11z"/>
</g>
</svg>
